<?xml version="1.0" encoding="UTF-8"?>
<svg version="1.1" xmlns="http://www.w3.org/2000/svg" width="104" height="60">
<path d="M0 0 C5.61 0 11.22 0 17 0 C17 0.99 17 1.98 17 3 C17.62599617 4.68236471 18.28752268 6.3523962 19 8 C22.00469351 5.40503742 22.36858796 4.0785301 24 0 C34.23 0 44.46 0 55 0 C54.34 0.66 53.68 1.32 53 2 C52.72313935 4.03467434 52.72313935 4.03467434 52.8046875 6.3515625 C52.81435547 7.62773437 52.81435547 7.62773437 52.82421875 8.9296875 C52.84097656 9.81914062 52.85773438 10.70859375 52.875 11.625 C52.88402344 12.5221875 52.89304688 13.419375 52.90234375 14.34375 C52.9259503 16.56276586 52.9588769 18.78125077 53 21 C55.91634129 21.2502157 55.91634129 21.2502157 59 21 C61.50008943 17.24986585 61.29601996 14.27488094 61.25 9.9375 C61.25773437 9.20466797 61.26546875 8.47183594 61.2734375 7.71679688 C61.4055717 3.39266152 61.4055717 3.39266152 59 0 C63.95 0 68.9 0 74 0 C73.93983979 3.54343619 73.8527385 7.08275533 73.75 10.625 C73.73582031 11.62402344 73.72164063 12.62304688 73.70703125 13.65234375 C73.50759726 19.67525015 73.12753771 23.4772725 69 28 C64.17500781 31.3343442 57.35161235 31.30469203 51.6796875 30.7890625 C46.80408047 29.80652572 44.00079243 27.91012347 41 24 C39.60154121 19.33264378 39.88799985 14.51186075 39.9375 9.6875 C39.94201172 8.85154297 39.94652344 8.01558594 39.95117188 7.15429688 C39.96289452 5.10283351 39.98082797 3.05140727 40 1 C36.94276535 3.92408875 34.40004411 6.62982252 32.3125 10.3125 C31.11328125 12.42578125 31.11328125 12.42578125 30 14 C29.34 14 28.68 14 28 14 C27.34 18.62 26.68 23.24 26 28 C26.66 28 27.32 28 28 28 C28 28.66 28 29.32 28 30 C22.39 30 16.78 30 11 30 C11.33 29.34 11.66 28.68 12 28 C12.66 28 13.32 28 14 28 C15.07446047 17.60521959 8.11790322 9.70212331 2 2 C1.34 1.34 0.68 0.68 0 0 Z " fill="#FFFFFF" transform="translate(30,0)"/>
<path d="M0 0 C6.8371875 -0.0928125 6.8371875 -0.0928125 13.8125 -0.1875 C15.96422729 -0.22846802 15.96422729 -0.22846802 18.15942383 -0.27026367 C19.8536145 -0.28150269 19.8536145 -0.28150269 21.58203125 -0.29296875 C22.73936768 -0.3086792 23.8967041 -0.32438965 25.08911133 -0.34057617 C28 -0 28 -0 29.8894043 1.2722168 C31.79722304 4.24026103 31.17574378 7.60879586 31 11 C30.7018576 14.7763932 30.7018576 14.7763932 32 17 C32.13357453 20.67329964 32.1671568 23.49852959 31 27 C25.35167078 31.19227203 18.81672456 30.33364706 12.125 30.1875 C8.12375 30.125625 4.1225 30.06375 0 30 C0 20.1 0 10.2 0 0 Z M12 6 C12 7.65 12 9.3 12 11 C13.98 11 15.96 11 18 11 C18.59070014 9.05396726 18.59070014 9.05396726 19 7 C17.87465895 5.64381501 17.87465895 5.64381501 14.9375 5.9375 C13.968125 5.958125 12.99875 5.97875 12 6 Z M12 17 C12 18.98 12 20.96 12 23 C13.98 23 15.96 23 18 23 C18.66 21.68 19.32 20.36 20 19 C16.77208445 16.8480563 15.71599191 16.79913557 12 17 Z " fill="#FFFFFF" transform="translate(0,0)"/>
<path d="M0 0 C8.91 0 17.82 0 27 0 C27 0.66 27 1.32 27 2 C26.34 2 25.68 2 25 2 C24.81824219 2.56847656 24.63648437 3.13695312 24.44921875 3.72265625 C22.85915366 8.60701003 21.09540222 13.31029027 19 18 C18.01 18 17.02 18 16 18 C15.67 16.35 15.34 14.7 15 13 C14.34 13 13.68 13 13 13 C12.67 14.65 12.34 16.3 12 18 C10.68 18 9.36 18 8 18 C7.1605118 15.89828133 6.32860344 13.79353375 5.5 11.6875 C4.80390625 9.92986328 4.80390625 9.92986328 4.09375 8.13671875 C3 5 3 5 3 2 C2.01 1.67 1.02 1.34 0 1 C0 0.67 0 0.34 0 0 Z M7 2 C7.99 5.3 8.98 8.6 10 12 C10.66 11.34 11.32 10.68 12 10 C11.9934389 6.96003468 11.9934389 6.96003468 11 4 C9.68 3.34 8.36 2.68 7 2 Z M19 2 C17.13749195 4.21491684 17.13749195 4.21491684 16 7 C16.69140351 9.30287793 16.69140351 9.30287793 18 11 C20.16198167 6.66231898 20.16198167 6.66231898 21 2 C20.34 2 19.68 2 19 2 Z " fill="#FFFFFF" transform="translate(37,42)"/>
<path d="M0 0 C34.32 0 68.64 0 104 0 C103.67 0.66 103.34 1.32 103 2 C69.01 2 35.02 2 0 2 C0 1.34 0 0.68 0 0 Z " fill="#DCB203" transform="translate(0,35)"/>
<path d="M0 0 C2.31 0 4.62 0 7 0 C7 0.66 7 1.32 7 2 C6.34 2 5.68 2 5 2 C4.67 3.98 4.34 5.96 4 8 C6.97 8 9.94 8 13 8 C13 6.02 13 4.04 13 2 C12.34 2 11.68 2 11 2 C11 1.34 11 0.68 11 0 C13.64 0 16.28 0 19 0 C19 0.66 19 1.32 19 2 C18.34 2 17.68 2 17 2 C16.7641604 7.77807024 17.13216954 12.51324804 19 18 C16.03 18 13.06 18 10 18 C10.33 17.34 10.66 16.68 11 16 C11.66 16 12.32 16 13 16 C13 14.35 13 12.7 13 11 C10.03 11 7.06 11 4 11 C5.39759905 14.54518884 5.39759905 14.54518884 7 18 C4.69 18 2.38 18 0 18 C0 12.06 0 6.12 0 0 Z " fill="#FFFFFF" transform="translate(0,42)"/>
<path d="M0 0 C0.99 0 1.98 0 3 0 C3.40992187 1.04800781 3.81984375 2.09601562 4.2421875 3.17578125 C4.78627439 4.55476009 5.33055538 5.93366236 5.875 7.3125 C6.14441406 8.00279297 6.41382812 8.69308594 6.69140625 9.40429688 C7.92173667 12.51013099 9.13988463 15.20982695 11 18 C8.36 18 5.72 18 3 18 C3 16.68 3 15.36 3 14 C1.68 14 0.36 14 -1 14 C-1 15.32 -1 16.64 -1 18 C-3.31 18 -5.62 18 -8 18 C-7.4225 16.88625 -6.845 15.7725 -6.25 14.625 C-3.86265845 9.86736934 -1.91235451 4.96398403 0 0 Z " fill="#FFFFFF" transform="translate(70,42)"/>
<path d="M0 0 C0.99 0 1.98 0 3 0 C5.45855991 5.26322777 7.56176509 10.36691325 9 16 C9.66 16 10.32 16 11 16 C11 16.66 11 17.32 11 18 C8.69 18 6.38 18 4 18 C4 16.35 4 14.7 4 13 C2.35 13 0.7 13 -1 13 C-1 14.65 -1 16.3 -1 18 C-3.31 18 -5.62 18 -8 18 C-7.67 17.34 -7.34 16.68 -7 16 C-6.34 16 -5.68 16 -5 16 C-4.87753906 15.46890625 -4.75507813 14.9378125 -4.62890625 14.390625 C-3.85865792 11.46272452 -2.90419117 8.61888994 -1.9375 5.75 C-1.57527344 4.67234375 -1.21304687 3.5946875 -0.83984375 2.484375 C-0.56269531 1.66453125 -0.28554688 0.8446875 0 0 Z " fill="#FFFFFF" transform="translate(28,42)"/>
<path d="M0 0 C2.97 0 5.94 0 9 0 C9 0.66 9 1.32 9 2 C8.34 2 7.68 2 7 2 C7.14063135 4.29199177 7.28765943 6.58359186 7.4375 8.875 C7.51871094 10.15117188 7.59992188 11.42734375 7.68359375 12.7421875 C7.79206027 15.88300152 7.79206027 15.88300152 9 18 C6.03 18 3.06 18 0 18 C0.33 17.34 0.66 16.68 1 16 C1.66 16 2.32 16 3 16 C2.88655624 13.8535247 2.75893655 11.70779408 2.625 9.5625 C2.55539063 8.36753906 2.48578125 7.17257813 2.4140625 5.94140625 C2.27742188 4.97074219 2.14078125 4.00007813 2 3 C1.34 2.67 0.68 2.34 0 2 C0 1.34 0 0.68 0 0 Z " fill="#FFFFFF" transform="translate(94,42)"/>
<path d="M0 0 C2.97 0 5.94 0 9 0 C8.67 0.66 8.34 1.32 8 2 C7.34 2 6.68 2 6 2 C6.11371497 4.29225435 6.24130964 6.58382388 6.375 8.875 C6.44460937 10.15117188 6.51421875 11.42734375 6.5859375 12.7421875 C6.67241106 16.08061699 6.67241106 16.08061699 9 18 C6.03 18 3.06 18 0 18 C0.33 17.34 0.66 16.68 1 16 C1.23029956 13.62876754 1.41119942 11.25258057 1.5625 8.875 C1.64628906 7.59367187 1.73007813 6.31234375 1.81640625 4.9921875 C1.90728516 3.51105469 1.90728516 3.51105469 2 2 C1.34 2 0.68 2 0 2 C0 1.34 0 0.68 0 0 Z " fill="#FFFFFF" transform="translate(82,42)"/>
</svg>
