<?xml version="1.0" encoding="UTF-8"?>
<svg version="1.1" xmlns="http://www.w3.org/2000/svg" width="104" height="60">
<path d="M0 0 C5.61 0 11.22 0 17 0 C17 0.99 17 1.98 17 3 C17.62599617 4.68236471 18.28752268 6.3523962 19 8 C22.00469351 5.40503742 22.36858796 4.0785301 24 0 C34.23 0 44.46 0 55 0 C54.34 0.66 53.68 1.32 53 2 C52.72313935 4.03467434 52.72313935 4.03467434 52.8046875 6.3515625 C52.81435547 7.62773437 52.81435547 7.62773437 52.82421875 8.9296875 C52.84097656 9.81914062 52.85773438 10.70859375 52.875 11.625 C52.88402344 12.5221875 52.89304688 13.419375 52.90234375 14.34375 C52.9259503 16.56276586 52.9588769 18.78125077 53 21 C54.99954746 21.04254356 57.00041636 21.04080783 59 21 C60.54950268 19.45049732 60.21655193 17.90009406 60.31640625 15.74609375 C60.37924805 14.46508789 60.37924805 14.46508789 60.44335938 13.15820312 C60.48267578 12.26037109 60.52199219 11.36253906 60.5625 10.4375 C60.62727539 9.08495117 60.62727539 9.08495117 60.69335938 7.70507812 C60.79978142 5.47021515 60.90179988 3.23523692 61 1 C60.34 0.67 59.68 0.34 59 0 C63.95 0 68.9 0 74 0 C73.93983979 3.54343619 73.8527385 7.08275533 73.75 10.625 C73.73582031 11.62402344 73.72164063 12.62304688 73.70703125 13.65234375 C73.50752477 19.67743933 73.11443404 23.46602617 69 28 C64.08276062 31.34835572 57.76058965 31.76669718 52 31 C47.4763507 29.77113464 43.92492715 27.71240754 41 24 C40.06515819 21.10386851 39.88186072 18.48461407 39.90234375 15.453125 C39.90556641 14.60878906 39.90878906 13.76445312 39.91210938 12.89453125 C39.92467773 11.58548828 39.92467773 11.58548828 39.9375 10.25 C39.94201172 9.36183594 39.94652344 8.47367188 39.95117188 7.55859375 C39.962926 5.37232671 39.97935751 3.18619821 40 1 C36.94276535 3.92408875 34.40004411 6.62982252 32.3125 10.3125 C31.11328125 12.42578125 31.11328125 12.42578125 30 14 C29.34 14 28.68 14 28 14 C27.34 18.62 26.68 23.24 26 28 C26.66 28 27.32 28 28 28 C28 28.66 28 29.32 28 30 C22.39 30 16.78 30 11 30 C11.33 29.34 11.66 28.68 12 28 C12.66 28 13.32 28 14 28 C15.07446047 17.60521959 8.11790322 9.70212331 2 2 C1.34 1.34 0.68 0.68 0 0 Z " fill="#A52C45" transform="translate(30,0)"/>
<path d="M0 0 C6.8371875 -0.0928125 6.8371875 -0.0928125 13.8125 -0.1875 C15.96422729 -0.22846802 15.96422729 -0.22846802 18.15942383 -0.27026367 C19.8536145 -0.28150269 19.8536145 -0.28150269 21.58203125 -0.29296875 C22.73936768 -0.3086792 23.8967041 -0.32438965 25.08911133 -0.34057617 C28 -0 28 -0 29.8894043 1.2722168 C31.79722304 4.24026103 31.17574378 7.60879586 31 11 C30.7018576 14.7763932 30.7018576 14.7763932 32 17 C32.58203713 24.21726041 32.58203713 24.21726041 30.1875 27.4375 C26.53468766 30.04665167 23.60133993 30.11980376 19.23828125 30.09765625 C17.72681519 30.09390991 17.72681519 30.09390991 16.18481445 30.09008789 C14.2680188 30.07643188 14.2680188 30.07643188 12.3125 30.0625 C6.2178125 30.0315625 6.2178125 30.0315625 0 30 C0 20.1 0 10.2 0 0 Z M12 7 C12 8.32 12 9.64 12 11 C13.98 11 15.96 11 18 11 C18.33 9.68 18.66 8.36 19 7 C16.69 7 14.38 7 12 7 Z M12 17 C12 18.98 12 20.96 12 23 C15.465 22.505 15.465 22.505 19 22 C19 20.68 19 19.36 19 18 C16.69 17.67 14.38 17.34 12 17 Z " fill="#A52B44" transform="translate(0,0)"/>
<path d="M0 0 C5.61 0 11.22 0 17 0 C17 0.99 17 1.98 17 3 C17.62599617 4.68236471 18.28752268 6.3523962 19 8 C22.00469351 5.40503742 22.36858796 4.0785301 24 0 C29.28 0 34.56 0 40 0 C38.35 1.98 36.7 3.96 35 6 C33.62825422 8.11964852 32.37121622 10.2728682 31.11328125 12.4609375 C30.56220703 13.22277344 30.56220703 13.22277344 30 14 C29.34 14 28.68 14 28 14 C27.34 18.62 26.68 23.24 26 28 C26.66 28 27.32 28 28 28 C28 28.66 28 29.32 28 30 C22.39 30 16.78 30 11 30 C11.33 29.34 11.66 28.68 12 28 C12.66 28 13.32 28 14 28 C15.07446047 17.60521959 8.11790322 9.70212331 2 2 C1.34 1.34 0.68 0.68 0 0 Z " fill="#A8344C" transform="translate(30,0)"/>
<path d="M0 0 C8.91 0 17.82 0 27 0 C27 0.66 27 1.32 27 2 C26.34 2 25.68 2 25 2 C24.81824219 2.56847656 24.63648437 3.13695312 24.44921875 3.72265625 C22.85915366 8.60701003 21.09540222 13.31029027 19 18 C18.01 18 17.02 18 16 18 C15.34 16.68 14.68 15.36 14 14 C13.34 15.32 12.68 16.64 12 18 C10.68 18 9.36 18 8 18 C7.1605118 15.89828133 6.32860344 13.79353375 5.5 11.6875 C4.80390625 9.92986328 4.80390625 9.92986328 4.09375 8.13671875 C3 5 3 5 3 2 C2.01 1.67 1.02 1.34 0 1 C0 0.67 0 0.34 0 0 Z M7 2 C7.99 5.3 8.98 8.6 10 12 C10.66 11.34 11.32 10.68 12 10 C11.9934389 6.96003468 11.9934389 6.96003468 11 4 C9.68 3.34 8.36 2.68 7 2 Z M19 2 C17.13749195 4.21491684 17.13749195 4.21491684 16 7 C16.69140351 9.30287793 16.69140351 9.30287793 18 11 C20.16198167 6.66231898 20.16198167 6.66231898 21 2 C20.34 2 19.68 2 19 2 Z " fill="#B85A6C" transform="translate(37,42)"/>
<path d="M0 0 C34.32 0 68.64 0 104 0 C103.67 0.66 103.34 1.32 103 2 C69.01 2 35.02 2 0 2 C0 1.34 0 0.68 0 0 Z " fill="#DEB305" transform="translate(0,35)"/>
<path d="M0 0 C2.31 0 4.62 0 7 0 C7 0.66 7 1.32 7 2 C6.34 2 5.68 2 5 2 C5 3.65 5 5.3 5 7 C7.64 7 10.28 7 13 7 C13 5.35 13 3.7 13 2 C12.34 2 11.68 2 11 2 C11 1.34 11 0.68 11 0 C13.64 0 16.28 0 19 0 C19 0.66 19 1.32 19 2 C18.34 2 17.68 2 17 2 C17.14063135 4.29199177 17.28765943 6.58359186 17.4375 8.875 C17.51871094 10.15117188 17.59992187 11.42734375 17.68359375 12.7421875 C17.79206027 15.88300152 17.79206027 15.88300152 19 18 C16.03 18 13.06 18 10 18 C10.33 17.34 10.66 16.68 11 16 C11.66 16 12.32 16 13 16 C13 14.35 13 12.7 13 11 C10.36 11 7.72 11 5 11 C5.66 13.31 6.32 15.62 7 18 C4.69 18 2.38 18 0 18 C0 12.06 0 6.12 0 0 Z " fill="#B7566A" transform="translate(0,42)"/>
<path d="M0 0 C3.21802689 2.62696072 4.18029168 5.652348 5.5625 9.5 C6.83616378 13.02340635 7.91750144 15.87625216 10 19 C7.36 19 4.72 19 2 19 C2 17.68 2 16.36 2 15 C0.68 15 -0.64 15 -2 15 C-2 16.32 -2 17.64 -2 19 C-4.31 19 -6.62 19 -9 19 C-8.4225 17.88625 -7.845 16.7725 -7.25 15.625 C-5.18199232 11.51106301 -3.47883461 7.30134131 -1.83203125 3.00390625 C-1 1 -1 1 0 0 Z " fill="#B44E62" transform="translate(71,41)"/>
<path d="M0 0 C1.828125 0.09765625 1.828125 0.09765625 4 1 C5.484375 3.87109375 5.484375 3.87109375 6.75 7.4375 C7.17796875 8.61183594 7.6059375 9.78617188 8.046875 10.99609375 C9 14 9 14 9 16 C9.66 16 10.32 16 11 16 C11 16.66 11 17.32 11 18 C8.69 18 6.38 18 4 18 C4 16.35 4 14.7 4 13 C2.35 13 0.7 13 -1 13 C-1 14.65 -1 16.3 -1 18 C-3.31 18 -5.62 18 -8 18 C-7.67 17.34 -7.34 16.68 -7 16 C-6.34 16 -5.68 16 -5 16 C-4.87753906 15.29488281 -4.75507813 14.58976562 -4.62890625 13.86328125 C-3.96594799 10.84496817 -3.01824425 8.08110558 -1.9375 5.1875 C-1.57527344 4.21167969 -1.21304687 3.23585937 -0.83984375 2.23046875 C-0.42412109 1.12638672 -0.42412109 1.12638672 0 0 Z " fill="#B75668" transform="translate(28,42)"/>
<path d="M0 0 C1.65 0 3.3 0 5 0 C5 0.66 5 1.32 5 2 C4.34 2 3.68 2 3 2 C2.81824219 2.56847656 2.63648438 3.13695312 2.44921875 3.72265625 C0.85915366 8.60701003 -0.90459778 13.31029027 -3 18 C-3.99 18 -4.98 18 -6 18 C-8.66038099 12.4373852 -9.96232949 7.06732052 -11 1 C-10.34 1 -9.68 1 -9 1 C-9 1.99 -9 2.98 -9 4 C-8.34 3.01 -7.68 2.02 -7 1 C-5.68 1 -4.36 1 -3 1 C-3.350625 2.11375 -3.70125 3.2275 -4.0625 4.375 C-5.37239331 7.80264476 -5.37239331 7.80264476 -4 10 C-2.68 6.7 -1.36 3.4 0 0 Z " fill="#AC3B52" transform="translate(59,42)"/>
<path d="M0 0 C2.97 0 5.94 0 9 0 C9 0.66 9 1.32 9 2 C8.34 2 7.68 2 7 2 C7.14063135 4.29199177 7.28765943 6.58359186 7.4375 8.875 C7.51871094 10.15117188 7.59992188 11.42734375 7.68359375 12.7421875 C7.79206027 15.88300152 7.79206027 15.88300152 9 18 C6.03 18 3.06 18 0 18 C0.33 17.34 0.66 16.68 1 16 C1.66 16 2.32 16 3 16 C2.88655624 13.8535247 2.75893655 11.70779408 2.625 9.5625 C2.55539063 8.36753906 2.48578125 7.17257813 2.4140625 5.94140625 C2.27742188 4.97074219 2.14078125 4.00007813 2 3 C1.34 2.67 0.68 2.34 0 2 C0 1.34 0 0.68 0 0 Z " fill="#C06B7D" transform="translate(94,42)"/>
<path d="M0 0 C2.97 0 5.94 0 9 0 C8.67 0.66 8.34 1.32 8 2 C7.34 2 6.68 2 6 2 C6.11371497 4.29225435 6.24130964 6.58382388 6.375 8.875 C6.44460937 10.15117188 6.51421875 11.42734375 6.5859375 12.7421875 C6.67241106 16.08061699 6.67241106 16.08061699 9 18 C6.03 18 3.06 18 0 18 C0.33 17.34 0.66 16.68 1 16 C1.23029956 13.62876754 1.41119942 11.25258057 1.5625 8.875 C1.64628906 7.59367187 1.73007813 6.31234375 1.81640625 4.9921875 C1.90728516 3.51105469 1.90728516 3.51105469 2 2 C1.34 2 0.68 2 0 2 C0 1.34 0 0.68 0 0 Z " fill="#BE6779" transform="translate(82,42)"/>
<path d="M0 0 C0.66 0.33 1.32 0.66 2 1 C2.625 4.0625 2.625 4.0625 3 7 C1.68 7.33 0.36 7.66 -1 8 C-1 9.32 -1 10.64 -1 12 C-3.31 12 -5.62 12 -8 12 C-6.68 9.36 -5.36 6.72 -4 4 C-3.34 4 -2.68 4 -2 4 C-1.34 2.68 -0.68 1.36 0 0 Z " fill="#C06C73" transform="translate(70,48)"/>
<path d="M0 0 C5.28 0 10.56 0 16 0 C15.67 0.66 15.34 1.32 15 2 C13.02 2 11.04 2 9 2 C9 2.66 9 3.32 9 4 C8.34 4 7.68 4 7 4 C7 3.01 7 2.02 7 1 C6.34 1 5.68 1 5 1 C4.67 1.99 4.34 2.98 4 4 C2.68 2.68 1.36 1.36 0 0 Z " fill="#E3BDC5" transform="translate(43,42)"/>
<path d="M0 0 C1.2065625 0.0309375 1.2065625 0.0309375 2.4375 0.0625 C2.4375 0.7225 2.4375 1.3825 2.4375 2.0625 C1.7775 2.0625 1.1175 2.0625 0.4375 2.0625 C-0.2225 3.3825 -0.8825 4.7025 -1.5625 6.0625 C-1.8925 5.7325 -2.2225 5.4025 -2.5625 5.0625 C-3.2225 6.0525 -3.8825 7.0425 -4.5625 8.0625 C-3.54737544 0.08652135 -3.54737544 0.08652135 0 0 Z " fill="#C57686" transform="translate(61.5625,41.9375)"/>
<path d="M0 0 C0.33 0 0.66 0 1 0 C0.67 2.31 0.34 4.62 0 7 C-1.65 7.66 -3.3 8.32 -5 9 C-4.34 7.35 -3.68 5.7 -3 4 C-2.34 4 -1.68 4 -1 4 C-0.67 2.68 -0.34 1.36 0 0 Z " fill="#B8586C" transform="translate(59,46)"/>
<path d="M0 0 C0.33 0.66 0.66 1.32 1 2 C1.99 2 2.98 2 4 2 C4 2.99 4 3.98 4 5 C1.69 5 -0.62 5 -3 5 C-2.67 4.34 -2.34 3.68 -2 3 C-1.34 3 -0.68 3 0 3 C0 2.01 0 1.02 0 0 Z " fill="#CA8392" transform="translate(23,55)"/>
</svg>
